<svg width="80" height="83" viewBox="0 0 80 83" fill="none" xmlns="http://www.w3.org/2000/svg">
<rect width="80" height="82.2018" fill="white"/>
<path d="M47.8787 31.9124C47.8787 27.5487 44.3421 24 39.9999 24C35.6576 24 32.1211 27.5487 32.1211 31.9124C32.1211 36.276 35.6576 39.8247 39.9999 39.8247C44.3421 39.8247 47.8787 36.276 47.8787 31.9124ZM34.5453 31.9124C34.5453 28.9341 36.991 26.5189 39.9999 26.5189C43.0088 26.5189 45.4544 28.9415 45.4544 31.9124C45.4544 34.8906 43.0088 37.3058 39.9999 37.3058C36.991 37.3058 34.5453 34.8832 34.5453 31.9124Z" fill="#E5E9FA"/>
<path d="M40 40.0618C35.6934 40.0618 31.6791 41.7435 28.6916 44.7959C25.6684 47.8926 24 52.1155 24 56.6792C24 57.3756 24.5419 57.9387 25.2121 57.9387H54.7879C55.4581 57.9387 56 57.3756 56 56.6792C56 52.1155 54.3316 47.8926 51.3084 44.7959C48.3209 41.7435 44.3066 40.0618 40 40.0618ZM26.4742 55.4198C26.7451 52.0266 28.1141 48.9224 30.3957 46.5961C32.9269 44.0105 36.3351 42.5881 40 42.5881C43.6649 42.5881 47.0802 44.0105 49.6043 46.5961C51.8859 48.9298 53.2549 52.0266 53.5258 55.4198H26.4742Z" fill="#E5E9FA"/>
</svg>
