<svg width="32" height="34" viewBox="0 0 32 34" fill="none" xmlns="http://www.w3.org/2000/svg">
<path d="M23.8787 7.91236C23.8787 3.54871 20.3421 0 15.9999 0C11.6576 0 8.12109 3.54871 8.12109 7.91236C8.12109 12.276 11.6576 15.8247 15.9999 15.8247C20.3421 15.8247 23.8787 12.276 23.8787 7.91236ZM10.5453 7.91236C10.5453 4.93411 12.991 2.51892 15.9999 2.51892C19.0088 2.51892 21.4544 4.94152 21.4544 7.91236C21.4544 10.8906 19.0088 13.3058 15.9999 13.3058C12.991 13.3058 10.5453 10.8832 10.5453 7.91236Z" fill="#E5E9FA"/>
<path d="M16 16.0618C11.6934 16.0618 7.67915 17.7435 4.69162 20.7959C1.66845 23.8926 0 28.1155 0 32.6792C0 33.3756 0.541889 33.9387 1.21212 33.9387H30.7879C31.4581 33.9387 32 33.3756 32 32.6792C32 28.1155 30.3316 23.8926 27.3084 20.7959C24.3209 17.7435 20.3066 16.0618 16 16.0618ZM2.47415 31.4198C2.7451 28.0266 4.11408 24.9224 6.39572 22.5961C8.92692 20.0105 12.3351 18.5881 16 18.5881C19.6649 18.5881 23.0802 20.0105 25.6043 22.5961C27.8859 24.9298 29.2549 28.0266 29.5258 31.4198H2.47415Z" fill="#E5E9FA"/>
</svg>
